<svg id="Capa_1" enable-background="new 0 0 512 512" height="512" viewBox="0 0 512 512" width="512" xmlns="http://www.w3.org/2000/svg"><g><g><path d="m286 136c-11.05 0-20 8.95-20 20v182l80-42.01c.01-22.09 17.91-39.99 40-39.99v-120z" fill="#8690a6"/><path d="m346 10h40v126h-40z" fill="#eefaff"/><path d="m186 236v-20c0-11.05 8.95-20 20-20s20 8.95 20 20v-40c0-11.05 8.95-20 20-20s20 8.95 20 20v162l44.58-33.43c10.46-7.85 23.31-10.63 35.42-8.58 9.15 1.56 17.88 5.88 24.86 12.86l-104.86 104.86v88.29h-140v-86c-13.15-26.31-20-55.31-20-84.72v-75.28c0-11.05 8.95-20 20-20s20 8.95 20 20v-20c0-11.05 8.95-20 20-20s20 8.95 20 20z" fill="#fce8d0"/><path d="m346 176v40c0 11.05-8.95 20-20 20s-20-8.95-20-20v-40z" fill="#eefaff"/></g><g><path d="m346 166h-40c-5.522 0-10 4.477-10 10v40c0 16.542 13.458 30 30 30s30-13.458 30-30v-40c0-5.523-4.478-10-10-10zm-10 50c0 5.514-4.486 10-10 10s-10-4.486-10-10v-30h20z"/><path d="m336 10v116h-50c-13.815 0-25.473 9.39-28.943 22.121-3.424-1.363-7.153-2.121-11.057-2.121-16.542 0-30 13.458-30 30v11.72c-3.13-1.11-6.494-1.72-10-1.72-13.815 0-25.473 9.39-28.943 22.121-3.424-1.363-7.153-2.121-11.057-2.121-13.815 0-25.473 9.39-28.943 22.121-3.424-1.363-7.153-2.121-11.057-2.121-16.542 0-30 13.458-30 30v75.28c0 29.995 6.909 60.037 20 87.047v83.673c0 5.522 4.477 10 10 10h25.001c5.523 0 10-4.478 10-10s-4.477-10-10-10h-15.001v-76c0-1.552-.361-3.082-1.055-4.471-12.394-24.797-18.945-52.547-18.945-80.249v-75.28c0-5.514 4.486-10 10-10s10 4.486 10 10v20c0 5.523 4.477 10 10 10s10-4.477 10-10v-40c0-5.514 4.486-10 10-10s10 4.486 10 10v40c0 5.523 4.477 10 10 10s10-4.477 10-10v-60c0-5.514 4.486-10 10-10s10 4.486 10 10v60c0 5.523 4.477 10 10 10s10-4.477 10-10v-100c0-5.514 4.486-10 10-10s10 4.486 10 10v162c0 3.788 2.14 7.25 5.527 8.944 3.388 1.692 7.441 1.329 10.472-.944l44.583-33.432c11.049-8.292 26.432-9.771 39.148-2.729l-96.801 96.799c-1.875 1.875-2.929 4.419-2.929 7.071v78.291h-14.999c-5.523 0-10 4.478-10 10s4.477 10 10 10h24.999c5.522 0 10-4.478 10-10v-84.148l101.932-101.931c3.903-3.904 3.904-10.238 0-14.143-5.991-5.99-13.132-10.47-20.991-13.238 3.014-11.725 12.954-20.693 25.176-22.281l16.811 16.811c3.907 3.906 10.236 3.904 14.143 0 3.905-3.905 3.905-10.237 0-14.143l-17.071-17.07c0-12.852 0-218.969 0-231.857h10c5.523 0 10-4.477 10-10s-4.477-10-10-10c-5.264 0-44.868 0-60 0-5.523 0-10 4.477-10 10zm1.146 275.379c-11.675.252-23.142 4.119-32.565 11.191l-28.581 21.432v-162.002c0-5.514 4.486-10 10-10h90v101.005c-19.348 3.944-34.664 19.104-38.854 38.374zm38.854-265.379v106h-20v-106z"/><circle cx="196.001" cy="502" r="10"/></g></g></svg>