<svg width="320" height="512" viewBox="0 0 320 512" fill="none" xmlns="http://www.w3.org/2000/svg">
<path d="M190 136C178.95 136 170 144.95 170 156V338L250 295.99C250.01 273.9 267.91 256 290 256V136H190Z" fill="#8690A6"/>
<path d="M250 10H290V136H250V10Z" fill="#EEFAFF"/>
<path d="M90 236V216C90 204.95 98.95 196 110 196C121.05 196 130 204.95 130 216V176C130 164.95 138.95 156 150 156C161.05 156 170 164.95 170 176V338L214.58 304.57C225.04 296.72 237.89 293.94 250 295.99C259.15 297.55 267.88 301.87 274.86 308.85L170 413.71V502H30V416C16.85 389.69 10 360.69 10 331.28V256C10 244.95 18.95 236 30 236C41.05 236 50 244.95 50 256V236C50 224.95 58.95 216 70 216C81.05 216 90 224.95 90 236V236Z" fill="#FFB74D"/>
<path d="M250 176V216C250 227.05 241.05 236 230 236C218.95 236 210 227.05 210 216V176H250Z" fill="#EEFAFF"/>
<path d="M250 166H210C204.478 166 200 170.477 200 176V216C200 232.542 213.458 246 230 246C246.542 246 260 232.542 260 216V176C260 170.477 255.522 166 250 166ZM240 216C240 221.514 235.514 226 230 226C224.486 226 220 221.514 220 216V186H240V216Z" fill="black"/>
<path d="M240 10V126H190C176.185 126 164.527 135.39 161.057 148.121C157.633 146.758 153.904 146 150 146C133.458 146 120 159.458 120 176V187.72C116.87 186.61 113.506 186 110 186C96.185 186 84.527 195.39 81.057 208.121C77.633 206.758 73.904 206 70 206C56.185 206 44.527 215.39 41.057 228.121C37.633 226.758 33.904 226 30 226C13.458 226 0 239.458 0 256V331.28C0 361.275 6.909 391.317 20 418.327V502C20 507.522 24.477 512 30 512H55.001C60.524 512 65.001 507.522 65.001 502C65.001 496.478 60.524 492 55.001 492H40V416C40 414.448 39.639 412.918 38.945 411.529C26.551 386.732 20 358.982 20 331.28V256C20 250.486 24.486 246 30 246C35.514 246 40 250.486 40 256V276C40 281.523 44.477 286 50 286C55.523 286 60 281.523 60 276V236C60 230.486 64.486 226 70 226C75.514 226 80 230.486 80 236V276C80 281.523 84.477 286 90 286C95.523 286 100 281.523 100 276V216C100 210.486 104.486 206 110 206C115.514 206 120 210.486 120 216V276C120 281.523 124.477 286 130 286C135.523 286 140 281.523 140 276V176C140 170.486 144.486 166 150 166C155.514 166 160 170.486 160 176V338C160 341.788 162.14 345.25 165.527 346.944C168.915 348.636 172.968 348.273 175.999 346L220.582 312.568C231.631 304.276 247.014 302.797 259.73 309.839L162.929 406.638C161.054 408.513 160 411.057 160 413.709V492H145.001C139.478 492 135.001 496.478 135.001 502C135.001 507.522 139.478 512 145.001 512H170C175.522 512 180 507.522 180 502V417.852L281.932 315.921C285.835 312.017 285.836 305.683 281.932 301.778C275.941 295.788 268.8 291.308 260.941 288.54C263.955 276.815 273.895 267.847 286.117 266.259L302.928 283.07C306.835 286.976 313.164 286.974 317.071 283.07C320.976 279.165 320.976 272.833 317.071 268.927L300 251.857C300 239.005 300 32.888 300 20H310C315.523 20 320 15.523 320 10C320 4.477 315.523 0 310 0C304.736 0 265.132 0 250 0C244.477 0 240 4.477 240 10V10ZM241.146 285.379C229.471 285.631 218.004 289.498 208.581 296.57L180 318.002V156C180 150.486 184.486 146 190 146H280V247.005C260.652 250.949 245.336 266.109 241.146 285.379ZM280 20V126H260V20H280Z" fill="black"/>
<path d="M100.001 512C105.524 512 110.001 507.523 110.001 502C110.001 496.477 105.524 492 100.001 492C94.4781 492 90.001 496.477 90.001 502C90.001 507.523 94.4781 512 100.001 512Z" fill="black"/>
</svg>
