<svg width="512" height="512" viewBox="0 0 512 512" fill="none" xmlns="http://www.w3.org/2000/svg">
<g clip-path="url(#clip0)">
<path d="M134.374 193.179L88.4496 283.743C85.8466 282.772 82.7917 282.168 79.6251 281.785C74.3321 281.146 67.9729 281.05 61.1519 281.39C47.5046 282.071 31.5853 284.519 17.8469 288.203C12.9972 289.501 7.90186 287.32 5.48483 283.09L5.48009 283.082L5.47531 283.073C2.98387 278.761 3.70482 273.315 7.22296 269.797L49.6487 227.371L49.649 227.371C72.7716 204.245 105.526 191.313 134.374 193.179Z" fill="#938BC3" stroke="white" stroke-width="8"/>
<path d="M317.834 377.752C319.601 407.868 307.244 440.591 285.484 462.351L243.058 504.777C239.698 508.137 234.574 508.96 230.344 506.821L230.336 506.817L230.328 506.813C226.15 504.724 223.698 500.135 224.405 495.395L224.406 495.389C227.645 473.466 229.399 456.363 229.628 443.724C229.742 437.407 229.478 432.09 228.79 427.785C228.421 425.484 227.914 423.355 227.216 421.467L317.834 377.752Z" fill="#7851A9" stroke="white" stroke-width="8"/>
<path d="M236.762 424.754C201.762 443.633 197.309 444.695 192.004 448.301C186.063 452.117 178.426 451.27 173.336 446.18L67.2695 340.113C62.3906 335.234 61.332 327.383 65.1484 321.445C68.7539 316.141 69.1797 312.746 88.2695 276.262L130.273 275.836L236.34 381.902L236.762 424.754Z" fill="#F5F5F5"/>
<path d="M236.762 424.754C201.762 443.633 197.309 444.695 192.004 448.301C186.063 452.117 178.426 451.27 173.336 446.18L120.301 393.145L183.941 329.508L236.336 381.902L236.762 424.754Z" fill="#F5F5F5"/>
<path d="M236.761 424.753L88.2695 276.261C161.879 137.316 250.339 50.5507 353.011 16.6133L425.136 88.3123L495.561 158.742C461.624 260.988 375.073 350.081 236.761 424.753V424.753Z" fill="#FAECD8"/>
<path d="M236.762 424.754L162.727 350.719L425.137 88.3125L495.562 158.738C461.625 260.988 375.074 350.082 236.762 424.754V424.754Z" fill="#F4D7AF"/>
<path d="M378.891 134.559L378.254 133.922C348.98 104.648 301.461 104.645 272.188 133.922C242.914 163.195 242.914 210.715 272.188 239.984L272.824 240.621C302.098 269.047 349.191 269.047 378.254 239.984C407.316 210.926 407.316 163.828 378.891 134.559V134.559Z" fill="#FFFF81"/>
<path d="M378.254 239.984C349.191 269.047 302.098 269.047 272.824 240.621L378.891 134.559C407.316 163.828 407.316 210.926 378.254 239.984Z" fill="#FFFF00" fill-opacity="0.9"/>
<path d="M401.944 110.232C374.829 83.1176 359.439 50.0167 356.708 19.0453C365.51 16.0937 374.49 13.6421 383.499 11.5352C419.359 3.35719 456.935 1.45979 496.034 5.66683C499.01 5.99702 501.65 7.48017 503.109 9.52297C503.221 9.67971 503.346 9.82694 503.482 9.96315C505.115 11.5956 506.14 13.5898 506.285 15.7822C506.289 15.8368 506.294 15.8914 506.3 15.9458C510.712 54.7905 508.399 92.3631 500.215 128.251C498.105 137.271 495.827 146.083 493.063 155.018C462.282 152.106 429.43 137.309 402.571 110.86C402.568 110.857 402.565 110.853 402.561 110.85L401.944 110.232Z" fill="#938BC3" stroke="white" stroke-width="7" stroke-linejoin="round"/>
<path d="M492.705 154.482C463.26 151.597 431.924 137.804 405.818 113.288L505.355 13.7473C505.591 14.4133 505.738 15.1064 505.786 15.8201C505.791 15.8808 505.796 15.9413 505.803 16.0018C510.205 54.7945 507.899 92.3065 499.728 128.139C497.651 137.02 495.41 145.694 492.705 154.482Z" fill="#7851A9" stroke="white" stroke-width="8" stroke-linejoin="round"/>
<path d="M226.773 285.873L226.943 286.1L227.144 286.301C229.004 288.161 230.045 290.396 230.216 292.947C230.321 308.297 229.979 320.29 227.191 330.962C224.442 341.49 219.259 350.899 209.324 360.831L209.324 360.832C117.298 452.858 75.3935 452.814 69.6171 452.173L69.529 452.163L69.4406 452.157C67.1338 452.004 65.1063 451.086 63.7347 449.715L62.5631 448.543H62.2017C60.6555 446.684 59.763 444.342 59.6017 441.615C59.6168 437.623 60.8235 393.369 151.344 302.848L151.346 302.846C151.673 302.519 152.04 302.101 152.473 301.608C154.56 299.23 158.17 295.119 166.144 291.102C175.811 286.231 192.013 281.537 219.125 281.746L219.141 281.746H219.156C221.945 281.746 224.857 283.319 226.773 285.873ZM62.9336 449.337C62.9342 449.338 62.9242 449.329 62.9022 449.308C62.9221 449.326 62.9331 449.337 62.9336 449.337Z" fill="#938BC3" stroke="white" stroke-width="8"/>
<path d="M67.3217 451.784L229.445 289.661C229.879 290.687 230.138 291.784 230.216 292.947C230.321 308.297 229.979 320.29 227.191 330.962C224.442 341.49 219.259 350.899 209.324 360.831L209.324 360.832C117.298 452.858 75.3935 452.814 69.6212 452.173L69.5328 452.163L69.4441 452.157C68.7034 452.108 67.9918 451.98 67.3217 451.784Z" fill="#7851A9" stroke="white" stroke-width="8"/>
</g>
<defs>
<clipPath id="clip0">
<rect width="512" height="512" fill="white"/>
</clipPath>
</defs>
</svg>
