<svg height="512" viewBox="0 0 64 64" width="512" xmlns="http://www.w3.org/2000/svg"><g id="flat"><path d="m9 3h6v6h-6z" fill="#394d5c"/><path d="m9 9h6v6h-6z" fill="#f4f4e6"/><path d="m9 15h6v6h-6z" fill="#394d5c"/><path d="m9 21h6v6h-6z" fill="#f4f4e6"/><path d="m9 27h6v6h-6z" fill="#394d5c"/><path d="m43 7h6v6h-6z" fill="#d3d1be"/><path d="m43 13h6v6h-6z" fill="#143441"/><path d="m43 19h6v6h-6z" fill="#d3d1be"/><path d="m43 25h6v6h-6z" fill="#143441"/><path d="m43 31h6v6h-6z" fill="#d3d1be"/><path d="m49 7h6v6h-6z" fill="#143441"/><path d="m49 13h6v6h-6z" fill="#d3d1be"/><path d="m49 19h6v6h-6z" fill="#143441"/><path d="m49 25h6v6h-6z" fill="#d3d1be"/><path d="m49 31h6v6h-6z" fill="#143441"/><path d="m37 31h6v6h-6z" fill="#143441"/><path d="m15 3h6v6h-6z" fill="#f4f4e6"/><path d="m15 9h6v6h-6z" fill="#394d5c"/><path d="m15 15h6v6h-6z" fill="#f4f4e6"/><path d="m15 21h6v6h-6z" fill="#394d5c"/><path d="m15 27h6v6h-6z" fill="#f4f4e6"/><path d="m21 3h6v6h-6z" fill="#394d5c"/><path d="m21 9h6v6h-6z" fill="#f4f4e6"/><path d="m21 15h6v6h-6z" fill="#394d5c"/><path d="m21 21h6v6h-6z" fill="#f4f4e6"/><path d="m21 27h6v6h-6z" fill="#394d5c"/><path d="m27 3h6v6h-6z" fill="#f4f4e6"/><path d="m27 9h6v6h-6z" fill="#394d5c"/><path d="m27 15h6v6h-6z" fill="#f4f4e6"/><path d="m27 21h6v6h-6z" fill="#394d5c"/><path d="m27 27h6v6h-6z" fill="#f4f4e6"/><path d="m33 3h6v6h-6z" fill="#394d5c"/><path d="m33 9h6v6h-6z" fill="#f4f4e6"/><path d="m33 15h6v6h-6z" fill="#394d5c"/><path d="m33 21h6v6h-6z" fill="#f4f4e6"/><path d="m33 27h6v6h-6z" fill="#394d5c"/><path d="m39 25h4v6h-4z" fill="#d3d1be"/><path d="m39 19h4v6h-4z" fill="#143441"/><path d="m39 13h4v6h-4z" fill="#d3d1be"/><path d="m39 7h4v6h-4z" fill="#143441"/><path d="m9 33h4v28h-4z" fill="#ad6327"/><path d="m9 51h4v6h-4z" fill="#66342e"/></g></svg>