<svg width="374" height="512" viewBox="0 0 374 512" fill="none" xmlns="http://www.w3.org/2000/svg">
<path d="M187 502L40.7149 285.119C-6.51894 215.09 2.50203 121.41 62.2308 61.6808C131.14 -7.22693 242.861 -7.22693 311.77 61.6808C371.499 121.41 380.52 215.09 333.286 285.119L187 502Z" fill="#7851A9"/>
<path d="M187.001 297.86C248.531 297.86 298.41 247.98 298.41 186.451C298.41 124.922 248.531 75.042 187.001 75.042C125.472 75.042 75.592 124.922 75.592 186.451C75.592 247.98 125.472 297.86 187.001 297.86Z" fill="white"/>
<path d="M210.822 209.001H163.18C141.542 209.001 124.001 226.542 124.001 248.18V269.68C124.001 285.243 136.618 297.86 152.181 297.86H221.821C237.384 297.86 250.001 285.243 250.001 269.68V248.18C250.001 226.542 232.46 209.001 210.822 209.001Z" fill="#FF7B79" fill-opacity="0.5"/>
<path d="M187.001 146.001C171.537 146.001 159.001 158.537 159.001 174.001V181.001C159.001 196.465 171.537 209.001 187.001 209.001C202.465 209.001 215.001 196.465 215.001 181.001V174.001C215.001 158.537 202.465 146.001 187.001 146.001Z" fill="#F5DBCD"/>
<path d="M318.841 54.6088C283.625 19.3939 236.803 0 187 0C137.197 0 90.3757 19.3949 55.1598 54.6098C-7.81296 117.584 -17.3739 216.878 32.4249 290.711L178.709 507.592C180.568 510.348 183.675 512 186.999 512C190.323 512 193.431 510.348 195.289 507.592L341.575 290.711C391.375 216.877 381.813 117.583 318.841 54.6088V54.6088ZM324.996 279.527L187 484.117L49.0058 279.527C4.54898 213.614 13.084 124.97 69.3017 68.7517C100.741 37.3129 142.539 19.9999 187 19.9999C231.461 19.9999 273.26 37.3129 304.698 68.7527C360.917 124.971 369.453 213.613 324.996 279.527Z" fill="black"/>
<path d="M235.049 74.923C229.979 72.738 224.093 75.073 221.905 80.145C219.717 85.216 222.055 91.101 227.127 93.289C264.355 109.347 288.41 145.916 288.41 186.452C288.41 213.729 277.581 238.522 260.001 256.767V248.182C260.001 224.189 242.727 204.168 219.966 199.868C223.163 194.305 225.001 187.866 225.001 181.002V174.002C225.001 153.049 207.954 136.002 187.001 136.002C166.048 136.002 149.001 153.049 149.001 174.002V181.002C149.001 187.866 150.84 194.304 154.036 199.868C131.274 204.167 114.001 224.189 114.001 248.182V256.767C96.421 238.522 85.592 213.729 85.592 186.452C85.592 145.915 109.647 109.347 146.874 93.289C151.945 91.101 154.283 85.217 152.096 80.145C149.908 75.075 144.025 72.737 138.953 74.923C94.388 94.147 65.592 137.924 65.592 186.451C65.592 253.396 120.056 307.86 187.001 307.86C253.946 307.86 308.41 253.396 308.41 186.451C308.41 137.924 279.614 94.146 235.049 74.923V74.923ZM169.001 174.001C169.001 164.076 177.076 156.001 187.001 156.001C196.926 156.001 205.001 164.076 205.001 174.001V181.001C205.001 190.926 196.926 199.001 187.001 199.001C177.076 199.001 169.001 190.926 169.001 181.001V174.001ZM134.001 272.874V248.181C134.001 232.091 147.091 219.001 163.18 219.001H210.821C226.911 219.001 240.001 232.091 240.001 248.181V272.874C224.568 282.373 206.414 287.861 187.001 287.861C167.588 287.861 149.434 282.373 134.001 272.874Z" fill="black"/>
<path d="M187.001 85.041C189.631 85.041 192.211 83.971 194.07 82.11C195.93 80.251 197.001 77.671 197.001 75.041C197.001 72.411 195.931 69.831 194.07 67.971C192.211 66.111 189.631 65.041 187.001 65.041C184.371 65.041 181.791 66.11 179.931 67.971C178.071 69.831 177.001 72.411 177.001 75.041C177.001 77.671 178.071 80.251 179.931 82.11C181.791 83.971 184.371 85.041 187.001 85.041Z" fill="black"/>
</svg>
