<svg width="2189" height="1840" viewBox="0 0 2189 1840" fill="none" xmlns="http://www.w3.org/2000/svg">
<path fill-rule="evenodd" clip-rule="evenodd" d="M207.766 919.887C207.766 424.629 601.724 23 1089.94 23C1575.75 23 1969.71 424.615 1969.71 919.887C1969.71 1415.12 1575.76 1816.76 1089.94 1816.76C601.737 1816.76 207.766 1415.12 207.766 919.887V919.887Z" stroke="white" stroke-width="45.1478" stroke-miterlimit="2.613"/>
<path fill-rule="evenodd" clip-rule="evenodd" d="M260.359 920.862C260.359 453.633 630.795 74.7334 1089.86 74.7334C1546.66 74.7334 1917.1 453.62 1917.1 920.862C1917.1 1388.07 1546.68 1766.98 1089.86 1766.98C630.807 1766.98 260.359 1388.07 260.359 920.862V920.862Z" fill="#39599E" stroke="black" stroke-width="45.1478" stroke-miterlimit="2.613"/>
<path fill-rule="evenodd" clip-rule="evenodd" d="M562.634 920.862C562.634 618.673 801.246 374.596 1094.43 374.596C1387.6 374.596 1626.23 618.673 1626.23 920.862C1626.23 1220.71 1387.6 1464.78 1094.43 1464.78C801.246 1464.78 562.634 1220.71 562.634 920.862V920.862Z" fill="white"/>
<path fill-rule="evenodd" clip-rule="evenodd" d="M74.0103 762.788H2103.45V1076.61H74.0103V762.788Z" fill="#003272" stroke="black" stroke-width="45.1478" stroke-miterlimit="2.613"/>
<path fill-rule="evenodd" clip-rule="evenodd" d="M23 750.2H2165.9V1089.56H23V750.2Z" stroke="white" stroke-width="45.1478" stroke-miterlimit="2.613"/>
</svg>
